<svg xmlns="http://www.w3.org/2000/svg"
    xmlns:xlink="http://www.w3.org/1999/xlink" aria-hidden="true" role="img" class="iconify iconify--logos" width="27" height="27" preserveAspectRatio="xMidYMid meet" viewBox="0 0 27 27">
        <path
          fill="#fff"
          id="path1970"
          d="m 23.698614,26.427006 c -1.059726,-0.238494 -3.73928,-2.27982 -6.110838,-4.655335 -2.03976,-2.043166 -3.246498,-3.416705 -4.446454,-5.061072 -0.483692,-0.662832 -0.41813,-0.586555 -1.366696,-1.589985 -0.935589,-0.989697 -0.393354,-1.100741 -3.2412686,0.663762 -0.960308,0.594984 -2.295611,1.485383 -3.424255,2.283338 -3.278568,2.317967 -4.26092202,2.357893 -4.51728602,0.1836 -0.209765,-1.779074 0.211519,-2.344823 3.70536702,-4.975983 2.35357,-1.772436 2.681006,-2.047302 3.274658,-2.748894 0.171045,-0.202144 0.360975,-0.420339 0.422068,-0.48488 l 0.111076,-0.1173453 -0.03833,-0.266168 c -0.09592,-0.666077 -0.310331,-1.30098 -0.866987,-2.567249 -0.753861,-1.714867 -0.834277,-2.142353 -0.576209,-3.063062 0.210566,-0.751231 0.379147,-0.847311 1.078359,-0.614589 0.630743,0.20993 0.599679,0.182012 1.813164,1.629635 1.5554156,1.85553 1.5985766,1.892199 2.2698366,1.928437 0.68831,0.03716 0.735317,0.0093 3.118969,-1.845144 1.084912,-0.844066 2.052605,-1.596764 2.150422,-1.672655 1.823237,-1.414551 3.491202,-2.49830403 4.963762,-3.22518303 1.822476,-0.899602 3.701165,1.63636203 2.2541,3.04271203 -1.420886,1.380909 -2.815898,2.514218 -7.021682,5.704417 -2.759488,2.0931483 -3.063697,2.6449323 -2.193844,3.9792543 3.327679,5.10453 6.264036,8.473563 9.710093,11.140882 1.18851,0.919932 1.245852,1.002349 1.219321,1.752469 -0.01679,0.475013 -1.302906,0.80059 -2.287347,0.579038 z"
        />
</svg>